<svg width="36" height="46" viewBox="0 0 36 46" fill="none" xmlns="http://www.w3.org/2000/svg">
<path d="M10.5574 0C11.1068 0 11.6219 0.14689 12.0656 0.403541C12.5092 0.14689 13.0244 0 13.5738 0H21.8689C22.4183 0 22.9334 0.14689 23.3771 0.403541C23.8207 0.14689 24.3358 0 24.8852 0H32.4262C34.0921 0 35.4426 1.35049 35.4426 3.01639V9.80328C35.4426 10.7527 34.9956 11.6467 34.2361 12.2164L29.5817 15.7072L30.8996 27.5685C31.2485 30.7088 32.7101 32.302 34.8393 35.141C35.2309 35.6631 35.4426 36.2982 35.4426 36.9508V42.9836C35.4426 44.6495 34.0921 46 32.4262 46H3.01639C1.35049 46 0 44.6495 0 42.9836V36.9508C0 36.2982 0.211684 35.6631 0.603279 35.141C2.73248 32.302 4.19412 30.7088 4.54304 27.5685L5.86097 15.7072L1.20656 12.2164C0.447012 11.6467 0 10.7527 0 9.80328V3.01639C0 1.35049 1.35049 0 3.01639 0H10.5574Z" fill="#34364C"/>
</svg>
