<svg width="35" height="48" viewBox="0 0 35 48" fill="none" xmlns="http://www.w3.org/2000/svg">
<path d="M10.1133 10.5462C9.808 9.70744 9.64107 8.80209 9.64107 7.85893C9.64107 3.51855 13.1596 0 17.5 0C21.8404 0 25.3589 3.51855 25.3589 7.85893C25.3589 9.13033 25.0551 10.3355 24.5165 11.4012C25.2915 11.4548 26.0447 11.804 26.5938 12.4316C29.5772 15.8412 32.188 20.7027 32.188 26.3376C32.188 30.3662 30.8011 33.3514 28.927 35.5024L32.4865 36.1266C33.9399 36.3815 35 37.6438 35 39.1194V44.8164C35 45.6222 34.6799 46.395 34.1101 46.9648C33.5403 47.5346 32.7674 47.8548 31.9616 47.8548L3.0384 47.8548C1.36034 47.8548 0 46.4944 0 44.8164V39.1194C0 37.6455 1.05777 36.3842 2.5091 36.1274L5.71998 35.5594C3.82031 33.4044 2.41027 30.4025 2.41027 26.3376C2.41027 21.9413 4.11398 18.1126 6.11221 15.1784C7.3682 13.334 8.79016 11.7683 10.1133 10.5462Z" fill="#F4F7FA"/>
</svg>
