<svg width="45" height="50" viewBox="0 0 45 50" fill="none" xmlns="http://www.w3.org/2000/svg">
<path d="M19.6591 0.0190883C20.6608 -0.0935449 21.6532 0.29714 22.3093 1.06237L28.5178 8.3036C35.6476 10.0655 39.7786 15.4342 42.0633 22.1363C44.4176 29.0423 45 37.8096 45 46.8003C45 48.4809 43.6376 49.8433 41.957 49.8433H13.5845C11.969 49.8433 10.6351 48.5809 10.5461 46.9678C10.4667 45.5284 10.7979 43.0307 11.8071 40.4795L11.8257 40.4328C8.95974 41.9711 5.7791 41.6027 3.41794 39.9215C0.548479 37.8785 -1.04702 33.8792 0.77586 29.9296C2.09036 27.0815 3.5071 25.5733 4.57885 24.4327C5.57996 23.3673 5.99716 22.8986 6.29231 21.7181C8.08179 14.5601 11.7633 10.4367 15.7169 8.55486C15.6597 7.7394 15.7062 6.95377 15.8062 6.24049C16.0552 4.46503 16.675 2.82431 17.3068 1.62488C17.7766 0.733056 18.6574 0.131722 19.6591 0.0190883Z" fill="#F4F7FA"/>
</svg>
