<svg width="42" height="44" viewBox="0 0 42 44" fill="none" xmlns="http://www.w3.org/2000/svg">
<path fill-rule="evenodd" clip-rule="evenodd" d="M18.7298 0H23.2702L23.3884 3.78363H27.8105V8.32399H23.5303L23.7382 13.4644C23.8212 13.3667 23.9066 13.2708 23.9947 13.1772C28.1288 8.78339 34.2584 6.4452 38.7831 10.2158C43.3234 13.9994 43.3234 22.7018 37.0719 27.7349C33.5306 30.586 30.3587 33.3345 30.515 37.3544L36.8757 38.2147V43.8902H5.12428V38.2147L11.485 37.3544C11.6413 33.3345 8.46937 30.586 4.92809 27.7349C-1.32344 22.7018 -1.32344 13.9994 3.21692 10.2158C7.74165 6.4452 13.8712 8.78339 18.0053 13.1772C18.0934 13.2708 18.1788 13.3667 18.2618 13.4644L18.4697 8.32399H14.1895V3.78363H18.6116L18.7298 0ZM14.4528 17.3844C17.2275 21.9293 17.5947 27.2422 17.5947 29.5526C16.204 29.5551 10.9611 27.2486 8.18531 23.462C6.18693 20.736 5.66584 16.6915 7.37891 15.1213C9.09198 13.5511 12.7186 14.5439 14.4528 17.3844ZM27.5472 17.3844C24.7725 21.9293 24.4053 27.2422 24.4053 29.5526C25.796 29.5551 31.0389 27.2486 33.8147 23.462C35.8131 20.736 36.3342 16.6915 34.6211 15.1213C32.908 13.5511 29.2814 14.5439 27.5472 17.3844Z" fill="#F4F7FA"/>
</svg>
