<svg width="47" height="43" viewBox="0 0 47 43" fill="none" xmlns="http://www.w3.org/2000/svg">
<path d="M17.9505 7.29356C19.3648 6.74945 20.3684 5.3779 20.3684 3.77193C20.3684 1.68875 18.6797 0 16.5965 0C14.5133 0 12.8246 1.68875 12.8246 3.77193C12.8246 5.69701 14.2667 7.28526 16.1296 7.51525L14.4475 21.1228L6.3385 14.0799C7.07996 13.3911 7.54386 12.4076 7.54386 11.3158C7.54386 9.23262 5.85511 7.54387 3.77193 7.54387C1.68875 7.54387 0 9.23262 0 11.3158C0 13.399 1.68875 15.0877 3.77193 15.0877C4.13864 15.0877 4.49314 15.0354 4.82834 14.9378L9.05263 29.4211L13.421 36.5693L9.05263 37.3421V43L37.7773 43V37.3421L33.3529 36.5661L37.7193 29.4211L41.9436 14.9378C42.2788 15.0354 42.6333 15.0877 43 15.0877C45.0832 15.0877 46.7719 13.399 46.7719 11.3158C46.7719 9.23262 45.0832 7.54387 43 7.54387C40.9168 7.54387 39.2281 9.23262 39.2281 11.3158C39.2281 12.4076 39.692 13.3911 40.4334 14.0799L32.3245 21.1228L30.6423 7.51525C32.5052 7.28526 33.9474 5.69701 33.9474 3.77193C33.9474 1.68875 32.2586 0 30.1754 0C28.0923 0 26.4035 1.68875 26.4035 3.77193C26.4035 5.3779 27.4072 6.74945 28.8215 7.29356L23.386 19.614L17.9505 7.29356Z" fill="#34364C"/>
</svg>
