<svg width="39" height="44" viewBox="0 0 39 44" fill="none" xmlns="http://www.w3.org/2000/svg">
<path fill-rule="evenodd" clip-rule="evenodd" d="M23.8797 8.0344L16.9911 0C15.994 1.89304 15.0273 5.23411 16.4171 7.64602C15.7426 7.70608 15.0979 7.82019 14.5992 8.0203C11.4179 9.297 7.92714 12.5954 6.21146 19.4582C5.71467 21.4453 4.82052 22.3969 3.75781 23.528C2.75537 24.5948 1.60293 25.8213 0.49253 28.2272C-1.79504 33.1836 4.3786 38.14 8.8803 33.6383C11.4112 31.1074 13.6235 30.0626 15.4808 29.1854C18.1541 27.9228 20.0922 27.0075 21.1869 22.5083C21.7078 24.6069 21.4994 29.5599 16.4993 32.582C11.4991 35.6041 10.4574 41.9701 10.5616 43.8589H39C39 25.9268 36.6259 10.4335 23.8797 8.0344Z" fill="#34364C"/>
</svg>
