<svg width="48" height="50" viewBox="0 0 48 50" fill="none" xmlns="http://www.w3.org/2000/svg">
<path fill-rule="evenodd" clip-rule="evenodd" d="M18.7114 2.92846C18.7624 1.29653 20.1001 0 21.7328 0H26.2672C27.8999 0 29.2376 1.29653 29.2886 2.92846L29.3151 3.7786H30.8015C32.471 3.7786 33.8244 5.13199 33.8244 6.80148V8.6349C37.1194 7.88924 40.676 8.38732 43.6946 10.9029C49.9657 16.1288 49.3887 27.0836 41.9462 33.0755C40.1502 34.5215 38.7392 35.7203 37.7676 36.9555C37.5459 37.2373 37.356 37.5099 37.1962 37.7768L40.2598 38.1912C41.759 38.3939 42.8775 39.6738 42.8775 41.1868V46.8547C42.8775 48.5242 41.5241 49.8775 39.8546 49.8775H8.14539C6.4759 49.8775 5.12251 48.5242 5.12251 46.8547V41.1868C5.12251 39.6738 6.24098 38.3939 7.74024 38.1912L10.8038 37.7768C10.644 37.5099 10.4541 37.2373 10.2324 36.9555C9.2608 35.7203 7.84981 34.5215 6.05377 33.0755C-1.38872 27.0836 -1.96574 16.1288 4.30536 10.9029C7.32401 8.38732 10.8806 7.88924 14.1756 8.6349V6.80148C14.1756 5.13199 15.529 3.7786 17.1985 3.7786H18.6849L18.7114 2.92846Z" fill="#34364C"/>
</svg>
