<svg width="30" height="39" viewBox="0 0 30 39" fill="none" xmlns="http://www.w3.org/2000/svg">
<path d="M21.8214 7.42857C21.8214 9.58307 20.9042 11.5233 19.439 12.8802L23.2143 15.5451V20.4286H19.5184C19.6967 22.6922 21.149 24.9576 23.0284 26.9336C25.0229 29.0307 27.4225 30.722 29.0161 31.6326L29.25 31.7663V39H0V31.7663L0.233936 31.6326C1.82753 30.722 4.22713 29.0307 6.22161 26.9336C8.10098 24.9576 9.55335 22.6922 9.73158 20.4286H6.03571V15.5451L9.55176 13.0632C7.96755 11.7009 6.96429 9.68189 6.96429 7.42857C6.96429 3.32589 10.2902 0 14.3929 0C18.4955 0 21.8214 3.32589 21.8214 7.42857Z" fill="#F4F7FA"/>
</svg>
