<svg width="29" height="42" viewBox="0 0 29 42" fill="none" xmlns="http://www.w3.org/2000/svg">
<path d="M15.9939 22.9583H12.9475C12.9475 17.3644 14.6441 11.7798 18.3977 7.69206C18.9859 6.89145 19.3333 5.90297 19.3333 4.83333C19.3333 2.16395 17.1694 0 14.5 0C11.8306 0 9.66667 2.16395 9.66667 4.83333C9.66667 6.15033 10.1934 7.3443 11.0477 8.21606C8.02851 10.3685 2.41667 16.1378 2.41667 23.3611C2.41667 30.6507 8.13194 33.6019 11.1302 34.2078L0 36.1768V41.8889L29 41.8889V36.1768L17.6059 34.1784C20.6381 33.511 26.1806 30.5397 26.1806 23.3611C26.1806 18.6607 23.9909 14.4707 21.3253 11.4242C18.3977 13.7091 15.9939 19.0404 15.9939 22.9583Z" fill="#F4F7FA"/>
</svg>
