<svg width="53" height="49" viewBox="0 0 53 49" fill="none" xmlns="http://www.w3.org/2000/svg">
<path d="M12.8154 6.78462C12.8154 7.52892 12.9351 8.24505 13.1564 8.91487L11.6679 9.61308C10.434 8.33402 8.70222 7.53847 6.78462 7.53847C3.03758 7.53847 0 10.576 0 14.3231C0 17.6632 2.41366 20.4396 5.59196 21.0032L9.16677 33.2597C9.24139 33.5155 9.3496 33.7604 9.48857 33.9878L11.5489 37.3592L11.5363 37.3615C10.0959 37.6163 9.04615 38.8681 9.04615 40.3308V45.9846C9.04615 47.65 10.3962 49 12.0615 49L40.7657 49C41.5654 49 42.3324 48.6823 42.8979 48.1168C43.4634 47.5513 43.7811 46.7843 43.7811 45.9846V40.3308C43.7811 38.8664 42.7289 37.6137 41.2866 37.3607L41.2259 37.3501L43.2807 33.9878C43.4196 33.7604 43.5278 33.5155 43.6025 33.2597L47.1773 21.0032C50.3556 20.4396 52.7692 17.6632 52.7692 14.3231C52.7692 10.576 49.7317 7.53847 45.9846 7.53847C44.0646 7.53847 42.3309 8.33602 41.0966 9.61791L39.6108 8.92094C39.8334 8.24938 39.9538 7.53117 39.9538 6.78462C39.9538 3.03757 36.9163 0 33.1692 0C29.4222 0 26.3846 3.03757 26.3846 6.78462C26.3846 3.03758 23.347 0 19.6 0C15.853 0 12.8154 3.03758 12.8154 6.78462Z" fill="#34364C"/>
</svg>
