<svg width="36" height="45" viewBox="0 0 36 45" fill="none" xmlns="http://www.w3.org/2000/svg">
<path d="M8.33061 26.3452C7.9727 26.8338 7.54564 27.3427 7.04779 27.8661C5.29089 29.7134 3.13617 31.2332 1.74552 32.0279L1.51157 32.1616C0.576854 32.6957 0 33.6897 0 34.7663V42C0 43.6569 1.34315 45 3 45H32.25C33.9069 45 35.25 43.6569 35.25 42V34.7663C35.25 33.6897 34.6731 32.6957 33.7384 32.1616L33.5045 32.0279C32.1138 31.2332 29.9591 29.7134 28.2022 27.8661C27.7044 27.3427 27.2773 26.8338 26.9194 26.3452C28.236 26.0281 29.2143 24.8426 29.2143 23.4286V18.5451C29.2143 17.5704 28.7407 16.6564 27.9443 16.0942L26.6702 15.1948C27.4054 13.7663 27.8214 12.1453 27.8214 10.4286C27.8214 4.66903 23.1524 0 17.3929 0C11.6333 0 6.96429 4.66903 6.96429 10.4286C6.96429 12.2419 7.42831 13.9479 8.24214 15.4332L7.30567 16.0942C6.50931 16.6564 6.03571 17.5704 6.03571 18.5451V23.4286C6.03571 24.8426 7.01397 26.0281 8.33061 26.3452Z" fill="#F4F7FA"/>
</svg>
